<svg xmlns="http://www.w3.org/2000/svg" version="1.1" xmlns:xlink="http://www.w3.org/1999/xlink" xmlns:svgjs="http://svgjs.com/svgjs" width="48" height="48"><svg width="48" height="48" viewBox="0 0 48 48" fill="none" xmlns="http://www.w3.org/2000/svg">
<g clip-path="url(#clip0_1982_17128)">
<path d="M0 6C0 2.68629 2.68629 0 6 0H42C45.3137 0 48 2.68629 48 6V42C48 45.3137 45.3137 48 42 48H6C2.68629 48 0 45.3137 0 42V6Z" fill="#F8D57E"></path>
<path d="M9.23156 15.1816C12.9917 14.8416 16.1164 13.0514 17.4669 11.3971C17.7052 11.1251 17.4669 10.7399 17.0961 10.8759C14.66 11.941 11.8001 12.3035 9.25804 11.6917C6.68947 11.0798 3.4589 9.8561 2.74394 12.5528C2.29378 14.3431 4.70347 15.3855 9.23156 15.1816Z" fill="#2F261B"></path>
<path d="M30.4149 36.1106C30.4414 35.5667 30.4678 35.0455 30.4943 34.5016C33.0894 34.5016 35.7903 34.2524 35.9492 33.2553C36.1081 32.2128 33.2747 31.3064 30.6267 30.7398C30.6532 28.6096 30.6532 26.5021 30.6002 24.5079C30.6002 24.3266 30.3884 24.1906 30.1766 24.2133C28.6407 24.4626 26.9195 24.5985 25.1453 24.5985C23.0269 24.5985 20.8556 24.4172 18.8166 24.0547C18.5783 24.0093 18.3929 24.168 18.3929 24.3719C18.7636 30.7172 16.8836 39.3965 13.1234 45.4925C10.4489 49.8662 7.21832 53.2881 3.77591 53.2881C0.889584 53.0161 -0.884582 52.0417 -2.15563 50.4554C-2.44691 50.0928 -3.13539 50.3421 -2.97651 50.7726C-1.46714 55.5542 2.45191 58.7722 6.02672 60.1545C6.68872 60.4264 7.66849 60.6304 8.80713 60.7664C8.54233 63.2591 8.54233 66.4771 9.91929 66.681C11.3757 66.9076 12.7527 63.4858 13.4941 61.0383C14.0767 61.0383 14.6327 61.0383 15.2153 61.0156C15.6655 63.667 16.5658 67.0663 17.9692 66.9983C19.4256 66.9303 19.8228 63.1685 19.8758 60.4264C26.231 58.3189 29.0114 49.7529 30.0971 40.167C32.851 40.439 35.7109 40.439 36.0287 39.3965C36.3199 38.2635 33.2218 36.9944 30.4149 36.1106Z" fill="#2F261B"></path>
<path d="M17.1491 13.4488C15.5868 14.1287 11.9325 15.851 9.78762 18.0038C8.80785 18.9783 8.14585 20.8592 9.31098 21.7203C10.4761 22.5814 12.5415 21.7203 13.5213 20.7459C15.6927 18.593 17.1226 15.2391 17.6522 13.8114C17.7316 13.5395 17.4404 13.3129 17.1491 13.4488Z" fill="#2F261B"></path>
<path d="M42.9412 4.18516C41.935 3.73192 40.6375 4.13983 40.0814 5.09162C39.9755 5.27291 39.9225 5.43154 39.896 5.59017C37.5128 6.31534 33.9645 8.12826 30.4691 8.78545C27.0797 9.41997 24.9348 10.0545 22.3397 10.0545C21.2276 10.0545 18.3677 10.8023 18.6855 13.8616C18.9503 16.3091 18.8973 19.0058 18.5796 21.8612C18.5531 22.0198 18.6855 22.1558 18.8444 22.1784C22.6575 22.9036 27.0797 22.9489 30.3897 22.3144C30.5486 22.2917 30.6545 22.1558 30.6545 22.0198C30.681 21.3399 30.681 20.6828 30.7074 20.0256C37.5923 17.4422 42.2528 12.0714 42.6764 7.44842C43.1001 7.38043 43.4708 7.15382 43.7357 6.70059C44.2917 5.7488 43.9475 4.61572 42.9412 4.18516ZM25.1996 14.5641C24.6965 14.9721 24.2463 15.2893 24.1139 15.1987C24.1139 15.1987 23.7432 14.7454 22.9753 13.9976C22.5516 13.6124 22.3662 12.9325 22.8958 12.5019C23.4254 12.0714 24.1933 12.2527 24.6435 12.6379C25.4909 13.3404 25.994 13.6803 25.994 13.6803C26.0999 13.771 25.7027 14.1562 25.1996 14.5641Z" fill="#2F261B"></path>
</g>
<defs>
<clipPath id="SvgjsClipPath1000">
<rect width="48" height="48" fill="white"></rect>
</clipPath>
</defs>
</svg><style>@media (prefers-color-scheme: light) { :root { filter: none; } }
</style></svg>