<svg width="24" height="24" viewBox="0 0 24 24" fill="none" xmlns="http://www.w3.org/2000/svg">
<path fill-rule="evenodd" clip-rule="evenodd" d="M3.61399 4.21069C3.17804 3.87162 2.54976 3.95016 2.21069 4.38611C1.87162 4.82205 1.95016 5.45033 2.38611 5.7894L4.66386 7.56099C3.78436 8.54537 3.03065 9.68049 2.41854 10.8961L2.39686 10.9389C2.30554 11.119 2.18764 11.3515 2.1349 11.6382C2.09295 11.8662 2.09295 12.1339 2.1349 12.3619C2.18764 12.6486 2.30554 12.8811 2.39686 13.0612L2.41854 13.104C4.35823 16.956 7.71985 20 12.0001 20C14.2313 20 16.2129 19.1729 17.8736 17.8352L20.3861 19.7894C20.8221 20.1285 21.4503 20.0499 21.7894 19.614C22.1285 19.178 22.0499 18.5498 21.614 18.2107L3.61399 4.21069ZM16.2411 16.5655L14.4434 15.1673C13.7676 15.6894 12.9201 16 12.0001 16C9.79092 16 8.00006 14.2092 8.00006 12C8.00006 11.4354 8.11706 10.8981 8.32814 10.411L6.24467 8.7905C5.46659 9.63977 4.77931 10.6548 4.20485 11.7956C4.17614 11.8526 4.15487 11.8949 4.13694 11.9316C4.12114 11.9641 4.11132 11.9853 4.10491 12C4.11132 12.0148 4.12114 12.036 4.13694 12.0685C4.15487 12.1052 4.17614 12.1475 4.20485 12.2045C5.9597 15.6895 8.76726 18 12.0001 18C13.5314 18 14.9673 17.4816 16.2411 16.5655ZM10.0187 11.7259C10.0064 11.8155 10.0001 11.907 10.0001 12C10.0001 13.1046 10.8955 14 12.0001 14C12.2667 14 12.5212 13.9479 12.7538 13.8532L10.0187 11.7259Z" fill="#7F7E88"/>
<path d="M10.9506 8.13914L15.9995 12.0661C15.9999 12.0441 16.0001 12.0221 16.0001 12C16.0001 9.79091 14.2092 8.00005 12.0001 8.00005C11.6369 8.00005 11.285 8.04845 10.9506 8.13914Z" fill="#7F7E88"/>
<path d="M19.7953 12.2045C19.4494 12.8914 19.0626 13.5327 18.6397 14.1196L20.2175 15.3467C20.7288 14.6457 21.1849 13.8918 21.5816 13.104L21.6033 13.0612C21.6946 12.8811 21.8125 12.6486 21.8652 12.3619C21.9072 12.1339 21.9072 11.8662 21.8652 11.6382C21.8125 11.3515 21.6946 11.119 21.6033 10.9389L21.5816 10.8961C19.6419 7.04408 16.2803 4.00005 12.0001 4.00005C10.2848 4.00005 8.71714 4.48887 7.32934 5.32264L9.05854 6.66757C9.98229 6.23482 10.9696 6.00005 12.0001 6.00005C15.2329 6.00005 18.0404 8.31064 19.7953 11.7956C19.824 11.8526 19.8453 11.8949 19.8632 11.9316C19.879 11.9641 19.8888 11.9853 19.8952 12C19.8888 12.0148 19.879 12.036 19.8632 12.0685C19.8453 12.1052 19.824 12.1475 19.7953 12.2045Z" fill="#7F7E88"/>
</svg>
