<svg width="24" height="24" viewBox="0 0 24 24" fill="none" xmlns="http://www.w3.org/2000/svg">
<mask id="mask0_1441_5248" style="mask-type:alpha" maskUnits="userSpaceOnUse" x="0" y="0" width="24" height="24">
<rect width="24" height="24" fill="#D9D9D9"/>
</mask>
<g mask="url(#mask0_1441_5248)">
<path d="M2 23.9997V19.9997H22V23.9997H2ZM4 17.9997V14.2497L13.05 5.19972L16.8 8.94972L7.75 17.9997H4ZM6 15.9997H6.9L14 8.94972L13.05 7.99972L6 15.0997V15.9997ZM17.925 7.84972L14.175 4.09972L15.975 2.29972C16.1583 2.09972 16.3917 2.00389 16.675 2.01222C16.9583 2.02055 17.1917 2.11639 17.375 2.29972L19.725 4.64972C19.9083 4.83305 20 5.06222 20 5.33722C20 5.61222 19.9083 5.84972 19.725 6.04972L17.925 7.84972Z" fill="#8A8A8A"/>
</g>
</svg>
