<svg width="22" height="16" viewBox="0 0 22 16" fill="none" xmlns="http://www.w3.org/2000/svg">
<path d="M11 12.334C12.25 12.334 13.3125 11.8965 14.1875 11.0215C15.0625 10.1465 15.5 9.08398 15.5 7.83398C15.5 6.58398 15.0625 5.52148 14.1875 4.64648C13.3125 3.77148 12.25 3.33398 11 3.33398C9.75 3.33398 8.6875 3.77148 7.8125 4.64648C6.9375 5.52148 6.5 6.58398 6.5 7.83398C6.5 9.08398 6.9375 10.1465 7.8125 11.0215C8.6875 11.8965 9.75 12.334 11 12.334ZM11 10.534C10.25 10.534 9.6125 10.2715 9.0875 9.74648C8.5625 9.22149 8.3 8.58398 8.3 7.83398C8.3 7.08398 8.5625 6.44648 9.0875 5.92148C9.6125 5.39648 10.25 5.13398 11 5.13398C11.75 5.13398 12.3875 5.39648 12.9125 5.92148C13.4375 6.44648 13.7 7.08398 13.7 7.83398C13.7 8.58398 13.4375 9.22149 12.9125 9.74648C12.3875 10.2715 11.75 10.534 11 10.534ZM11 15.334C8.56667 15.334 6.35 14.6548 4.35 13.2965C2.35 11.9382 0.9 10.1173 0 7.83398C0.9 5.55065 2.35 3.72982 4.35 2.37148C6.35 1.01315 8.56667 0.333984 11 0.333984C13.4333 0.333984 15.65 1.01315 17.65 2.37148C19.65 3.72982 21.1 5.55065 22 7.83398C21.1 10.1173 19.65 11.9382 17.65 13.2965C15.65 14.6548 13.4333 15.334 11 15.334ZM11 13.334C12.8833 13.334 14.6125 12.8382 16.1875 11.8465C17.7625 10.8548 18.9667 9.51732 19.8 7.83398C18.9667 6.15065 17.7625 4.81315 16.1875 3.82148C14.6125 2.82982 12.8833 2.33398 11 2.33398C9.11667 2.33398 7.3875 2.82982 5.8125 3.82148C4.2375 4.81315 3.03333 6.15065 2.2 7.83398C3.03333 9.51732 4.2375 10.8548 5.8125 11.8465C7.3875 12.8382 9.11667 13.334 11 13.334Z" fill="#8A8A8A"/>
</svg>
