<svg width="18" height="22" viewBox="0 0 18 22" fill="none" xmlns="http://www.w3.org/2000/svg">
<path fill-rule="evenodd" clip-rule="evenodd" d="M4 2C2.89543 2 2 2.89543 2 4V16.2C2 17.0566 2.00078 17.6389 2.03755 18.089C2.07337 18.5274 2.1383 18.7516 2.21799 18.908C2.40973 19.2843 2.7157 19.5903 3.09202 19.782C3.24842 19.8617 3.47262 19.9266 3.91104 19.9624C4.36113 19.9992 4.94342 20 5.8 20H12.2C13.0566 20 13.6389 19.9992 14.089 19.9624C14.5274 19.9266 14.7516 19.8617 14.908 19.782C15.2843 19.5903 15.5903 19.2843 15.782 18.908C15.8617 18.7516 15.9266 18.5274 15.9624 18.089C15.9992 17.6389 16 17.0566 16 16.2V12C16 9.79086 14.2091 8 12 8H11.25C9.45508 8 8 6.54493 8 4.75C8 3.23122 6.76878 2 5.25 2H4ZM7 0C13.0751 0 18 4.92487 18 11V16.2413C18 17.0463 18 17.7106 17.9558 18.2518C17.9099 18.8139 17.8113 19.3306 17.564 19.816C17.1805 20.5686 16.5686 21.1805 15.816 21.564C15.3306 21.8113 14.8139 21.9099 14.2518 21.9558C13.7106 22 13.0463 22 12.2413 22H5.75868C4.95372 22 4.28936 22 3.74817 21.9558C3.18608 21.9099 2.66937 21.8113 2.18404 21.564C1.43139 21.1805 0.819468 20.5686 0.435975 19.816C0.188684 19.3306 0.0901197 18.8139 0.0441945 18.2518C-2.28137e-05 17.7106 -1.23241e-05 17.0463 4.31292e-07 16.2413L9.08129e-07 4C9.08129e-07 1.79086 1.79086 0 4 0H7ZM14.9474 6.77263C13.7867 4.59506 11.7572 2.95074 9.3216 2.30229C9.75227 3.01713 10 3.85463 10 4.75C10 5.44036 10.5596 6 11.25 6H12C13.0712 6 14.0769 6.28073 14.9474 6.77263Z" fill="#0F1729"/>
</svg>
