<svg width="21" height="17" viewBox="0 0 21 17" fill="none" xmlns="http://www.w3.org/2000/svg">
<path fill-rule="evenodd" clip-rule="evenodd" d="M0 3C0 1.34315 1.34315 0 3 0H5.75093C6.82997 0 7.86325 0.43595 8.61618 1.20888L7.94852 1.85927L8.61618 1.20888L9.72275 2.34484C9.91098 2.53807 10.1693 2.64706 10.4391 2.64706H14.4386C16.5513 2.64706 18.281 4.28495 18.4284 6.35939C19.7878 6.88545 20.5642 8.45884 19.977 9.92701L18.1542 14.4853C17.5468 16.0041 16.0759 17 14.4402 17H4C2.88522 17 1.87543 16.5427 1.15116 15.8079C0.440354 15.0867 0 14.0938 0 13V3ZM16.3829 6.17647C16.1713 5.29912 15.3812 4.64706 14.4386 4.64706H10.4391C9.62978 4.64706 8.85482 4.3201 8.29012 3.7404L7.18356 2.60444L7.89987 1.90666L7.18356 2.60444C6.80709 2.21798 6.29045 2 5.75093 2H3C2.44772 2 2 2.44772 2 3V11.4471L3.03813 8.24996C3.43958 7.01362 4.59158 6.17647 5.89147 6.17647H16.3829ZM3.03034 14.7499L4.94036 8.86763C5.07417 8.45552 5.45817 8.17647 5.89147 8.17647H17.4376C17.9575 8.17647 18.3131 8.7016 18.12 9.18438L16.2972 13.7426C15.9935 14.502 15.258 15 14.4402 15H4C3.64785 15 3.31756 14.9095 3.03034 14.7499Z" fill="#0F1729"/>
</svg>
