<svg width="160" height="57" viewBox="0 0 160 57" fill="none" xmlns="http://www.w3.org/2000/svg">
<path d="M66.2381 24.9895H57.9077V46.1297H50.3273V24.9895H41.9564V18.8887H66.2381V24.9895Z" fill="#2F261B"/>
<path d="M85.1484 27.0554C86.9929 28.6566 87.905 31.0888 87.905 34.3926V46.1079H81.0136V43.3919C79.9597 45.439 77.872 46.4727 74.7912 46.4727C73.1494 46.4727 71.7509 46.189 70.555 45.6214C69.3592 45.0539 68.4674 44.2837 67.8593 43.3108C67.2513 42.3379 66.9472 41.2231 66.9472 39.9868C66.9472 37.9802 67.7174 36.4398 69.2376 35.3453C70.778 34.2507 73.1292 33.6832 76.3113 33.6832H80.5069C80.3853 31.4537 78.8854 30.3389 76.0276 30.3389C75.0141 30.3389 73.9804 30.5011 72.9467 30.8253C71.913 31.1496 71.0212 31.5956 70.2916 32.1631L67.7985 27.1365C68.9741 26.3663 70.3929 25.7582 72.0549 25.3326C73.7372 24.9069 75.3992 24.684 77.1018 24.684C80.6488 24.6637 83.3243 25.4744 85.1484 27.0554ZM79.1287 41.1623C79.7773 40.757 80.2434 40.1286 80.5272 39.3382V37.514H77.345C75.1966 37.514 74.1223 38.2234 74.1223 39.6625C74.1223 40.3111 74.3655 40.838 74.852 41.2231C75.3384 41.6082 76.0276 41.8109 76.8788 41.8109C77.7301 41.8109 78.4801 41.588 79.1287 41.1623Z" fill="#2F261B"/>
<path d="M102.032 38.6093H99.5393V46.1289H92.1413V25.0293H99.5393V32.8124H102.194L107.363 25.0293H115.187L108.113 35.1433L115.653 46.1086H106.937L102.032 38.6093Z" fill="#2F261B"/>
<path d="M120.802 45.0535C118.957 44.1212 117.518 42.824 116.505 41.162C115.471 39.4999 114.964 37.615 114.964 35.5273C114.964 33.4396 115.471 31.5546 116.505 29.9129C117.538 28.2711 118.957 26.9739 120.802 26.0619C122.646 25.1498 124.734 24.6836 127.065 24.6836C129.456 24.6836 131.524 25.1903 133.246 26.224C134.99 27.2577 136.226 28.6765 136.935 30.4804L131.22 33.3788C130.267 31.4938 128.868 30.5412 127.024 30.5412C125.707 30.5412 124.612 30.9871 123.74 31.8587C122.869 32.7505 122.443 33.9666 122.443 35.507C122.443 37.088 122.869 38.3244 123.74 39.2162C124.612 40.108 125.707 40.5539 127.024 40.5539C128.868 40.5539 130.267 39.6013 131.22 37.7163L136.935 40.635C136.206 42.4592 134.969 43.878 133.246 44.8914C131.503 45.9251 129.436 46.4318 127.065 46.4318C124.734 46.4723 122.646 45.9859 120.802 45.0535Z" fill="#2F261B"/>
<path d="M157.243 27.0558C159.088 28.657 160 31.0892 160 34.393V46.1083H153.109V43.3923C152.055 45.4394 149.967 46.4731 146.886 46.4731C145.244 46.4731 143.846 46.1893 142.65 45.6218C141.454 45.0543 140.562 44.2841 139.954 43.3112C139.346 42.3383 139.042 41.2235 139.042 39.9871C139.042 37.9805 139.812 36.4401 141.333 35.3456C142.873 34.2511 145.224 33.6836 148.406 33.6836H152.602C152.48 31.454 150.98 30.3393 148.123 30.3393C147.109 30.3393 146.075 30.5014 145.042 30.8257C144.008 31.15 143.116 31.5959 142.387 32.1634L139.934 27.1166C141.11 26.3464 142.528 25.7383 144.19 25.3127C145.873 24.887 147.535 24.6641 149.237 24.6641C152.724 24.6641 155.399 25.4748 157.243 27.0558ZM151.203 41.1627C151.852 40.7573 152.318 40.129 152.602 39.3385V37.5144H149.42C147.271 37.5144 146.197 38.2238 146.197 39.6628C146.197 40.3114 146.44 40.8384 146.927 41.2235C147.413 41.6086 148.102 41.8113 148.954 41.8113C149.805 41.8113 150.555 41.5884 151.203 41.1627Z" fill="#2F261B"/>
<rect y="14.0195" width="37.2942" height="37.2942" rx="3.24298" fill="#F8D57E"/>
<path d="M11.9957 10.3763C14.8738 10.0722 17.2655 8.47102 18.2992 6.99141C18.4816 6.74819 18.2992 6.40362 18.0155 6.52523C16.1508 7.47786 13.9618 7.80215 12.016 7.2549C10.0499 6.70765 7.57715 5.61315 7.0299 8.02511C6.68533 9.62633 8.52977 10.5587 11.9957 10.3763Z" fill="#2F261B"/>
<path d="M28.2108 29.1063C28.231 28.6198 28.2513 28.1536 28.2716 27.6672C30.2579 27.6672 32.3253 27.4442 32.4469 26.5524C32.5685 25.6201 30.3998 24.8093 28.3729 24.3026C28.3932 22.3974 28.3932 20.5124 28.3527 18.7287C28.3527 18.5666 28.1905 18.445 28.0284 18.4653C26.8528 18.6882 25.5353 18.8098 24.1773 18.8098C22.5558 18.8098 20.8938 18.6477 19.3331 18.3234C19.1507 18.2828 19.0088 18.4247 19.0088 18.6071C19.2926 24.2823 17.8535 32.0452 14.9754 37.4975C12.9283 41.4093 10.4555 44.4699 7.82058 44.4699C5.6113 44.2267 4.25331 43.3551 3.28042 41.9363C3.05746 41.612 2.53048 41.835 2.65209 42.2201C3.8074 46.4967 6.80715 49.3749 9.54341 50.6113C10.0501 50.8545 10.8001 51.0369 11.6716 51.1585C11.4689 53.3881 11.4689 56.2662 12.5229 56.4486C13.6377 56.6513 14.6916 53.5907 15.2592 51.4017C15.7051 51.4017 16.1307 51.4017 16.5766 51.3815C16.9212 53.7529 17.6103 56.7932 18.6845 56.7324C19.7993 56.6716 20.1033 53.307 20.1439 50.8545C25.0083 48.9695 27.1365 41.308 27.9676 32.7344C30.0755 32.9776 32.2645 32.9776 32.5077 32.0452C32.7307 31.0318 30.3592 29.8967 28.2108 29.1063Z" fill="#2F261B"/>
<path d="M18.0564 8.83713C16.8606 9.44519 14.0635 10.9856 12.4217 12.9111C11.6718 13.7827 11.1651 15.465 12.0569 16.2352C12.9487 17.0054 14.5297 16.2352 15.2796 15.3636C16.9416 13.4381 18.0361 10.4384 18.4415 9.16143C18.5023 8.91821 18.2794 8.71552 18.0564 8.83713Z" fill="#2F261B"/>
<path d="M37.7975 0.546463C37.0273 0.141091 36.0341 0.505926 35.6085 1.35721C35.5274 1.51936 35.4869 1.66124 35.4666 1.80312C33.6424 2.45171 30.9264 4.0732 28.251 4.66099C25.6566 5.22851 24.0148 5.79603 22.0285 5.79603C21.1772 5.79603 18.9882 6.4649 19.2315 9.20116C19.4341 11.3902 19.3936 13.8021 19.1504 16.356C19.1301 16.4979 19.2315 16.6195 19.3531 16.6397C22.2717 17.2883 25.6566 17.3289 28.1902 16.7613C28.3118 16.7411 28.3929 16.6195 28.3929 16.4979C28.4131 15.8898 28.4131 15.302 28.4334 14.7142C33.7032 12.4036 37.2705 7.59994 37.5948 3.46514C37.9191 3.40434 38.2028 3.20165 38.4055 2.79628C38.8312 1.945 38.5677 0.931567 37.7975 0.546463ZM24.2175 9.82948C23.8324 10.1943 23.4879 10.4781 23.3865 10.397C23.3865 10.397 23.1028 9.99163 22.515 9.32277C22.1907 8.9782 22.0488 8.37015 22.4542 7.98504C22.8595 7.59994 23.4473 7.76209 23.7919 8.10665C24.4405 8.73498 24.8256 9.03901 24.8256 9.03901C24.9067 9.12008 24.6026 9.46465 24.2175 9.82948Z" fill="#2F261B"/>
</svg>
