<svg width="24" height="24" viewBox="0 0 24 24" fill="none" xmlns="http://www.w3.org/2000/svg">
<path fill-rule="evenodd" clip-rule="evenodd" d="M12.104 3C9.1997 3 6.95437 5.19595 6.95437 7.77444V10.2188C6.95437 10.5405 6.82216 10.8248 6.75326 10.9646C6.66372 11.1463 6.54665 11.339 6.42177 11.5279C6.17019 11.9084 5.83348 12.3536 5.47475 12.8035C5.01446 13.3809 4.91645 14.0494 5.06308 14.5627C5.2024 15.0504 5.56413 15.432 6.18141 15.5344C7.73804 15.7925 9.72812 16 12.104 16C14.655 16 16.6048 15.7608 18.0147 15.4803C18.5155 15.3806 18.805 15.078 18.9302 14.6866C19.064 14.2684 19.017 13.7009 18.6804 13.1607C18.5186 12.9011 18.3447 12.6358 18.1695 12.3698C18.1516 12.3426 18.1336 12.3154 18.1156 12.2881C17.9606 12.0528 17.8043 11.8158 17.6652 11.5955C17.5118 11.3526 17.3625 11.1043 17.2492 10.8776C17.1606 10.7004 16.9999 10.3623 16.9999 10V7.71194C16.9999 5.09322 14.9664 3 12.104 3ZM4.95437 7.77444C4.95437 3.97465 8.2156 1 12.104 1C16.0343 1 18.9999 3.95238 18.9999 7.71194V9.90173C19.0082 9.92117 19.0205 9.94809 19.0381 9.98326C19.1057 10.1185 19.2119 10.2991 19.3561 10.5274C19.4842 10.7302 19.6292 10.9503 19.7864 11.1887C19.804 11.2155 19.8218 11.2424 19.8397 11.2696C20.0147 11.5353 20.2011 11.8195 20.3777 12.1029C20.9969 13.0963 21.1634 14.2698 20.8352 15.2959C20.4984 16.3489 19.6504 17.1941 18.4049 17.4418C16.8615 17.7489 14.7807 18 12.104 18C9.6114 18 7.51175 17.7823 5.85421 17.5074C4.43279 17.2717 3.47969 16.3011 3.14001 15.1121C2.80765 13.9487 3.0665 12.6159 3.91093 11.5567C4.25612 11.1238 4.55018 10.7323 4.75339 10.4249C4.85156 10.2764 4.91654 10.1655 4.95437 10.0904V7.77444ZM4.98362 10.0249C4.98391 10.0248 4.98252 10.0291 4.97864 10.0385C4.9814 10.0297 4.98334 10.0251 4.98362 10.0249ZM15.7851 19.3808C16.1271 19.8145 16.0528 20.4433 15.6191 20.7852C13.5779 22.3948 10.4431 22.4152 8.37983 20.7846C7.94653 20.4421 7.87289 19.8132 8.21534 19.3799C8.55779 18.9466 9.18666 18.873 9.61996 19.2154C10.9506 20.2671 13.0601 20.2561 14.3807 19.2148C14.8144 18.8728 15.4432 18.9471 15.7851 19.3808Z" fill="#0F1729"/>
</svg>
