<svg width="16" height="16" viewBox="0 0 16 16" fill="none" xmlns="http://www.w3.org/2000/svg">
<mask id="mask0_483_2190" style="mask-type:alpha" maskUnits="userSpaceOnUse" x="0" y="0" width="16" height="16">
<rect width="16" height="16" fill="#D9D9D9"/>
</mask>
<g mask="url(#mask0_483_2190)">
<path d="M7.99992 11.334C8.18881 11.334 8.34714 11.2701 8.47492 11.1423C8.6027 11.0145 8.66658 10.8562 8.66658 10.6673C8.66658 10.4784 8.6027 10.3201 8.47492 10.1923C8.34714 10.0645 8.18881 10.0007 7.99992 10.0007C7.81103 10.0007 7.6527 10.0645 7.52492 10.1923C7.39714 10.3201 7.33325 10.4784 7.33325 10.6673C7.33325 10.8562 7.39714 11.0145 7.52492 11.1423C7.6527 11.2701 7.81103 11.334 7.99992 11.334ZM7.33325 8.66732H8.66658V4.66732H7.33325V8.66732ZM7.99992 14.6673C7.0777 14.6673 6.21103 14.4923 5.39992 14.1423C4.58881 13.7923 3.88325 13.3173 3.28325 12.7173C2.68325 12.1173 2.20825 11.4118 1.85825 10.6007C1.50825 9.78954 1.33325 8.92287 1.33325 8.00065C1.33325 7.07843 1.50825 6.21176 1.85825 5.40065C2.20825 4.58954 2.68325 3.88398 3.28325 3.28398C3.88325 2.68398 4.58881 2.20898 5.39992 1.85898C6.21103 1.50898 7.0777 1.33398 7.99992 1.33398C8.92214 1.33398 9.78881 1.50898 10.5999 1.85898C11.411 2.20898 12.1166 2.68398 12.7166 3.28398C13.3166 3.88398 13.7916 4.58954 14.1416 5.40065C14.4916 6.21176 14.6666 7.07843 14.6666 8.00065C14.6666 8.92287 14.4916 9.78954 14.1416 10.6007C13.7916 11.4118 13.3166 12.1173 12.7166 12.7173C12.1166 13.3173 11.411 13.7923 10.5999 14.1423C9.78881 14.4923 8.92214 14.6673 7.99992 14.6673ZM7.99992 13.334C9.48881 13.334 10.7499 12.8173 11.7833 11.784C12.8166 10.7507 13.3333 9.48954 13.3333 8.00065C13.3333 6.51176 12.8166 5.25065 11.7833 4.21732C10.7499 3.18398 9.48881 2.66732 7.99992 2.66732C6.51103 2.66732 5.24992 3.18398 4.21659 4.21732C3.18325 5.25065 2.66659 6.51176 2.66659 8.00065C2.66659 9.48954 3.18325 10.7507 4.21659 11.784C5.24992 12.8173 6.51103 13.334 7.99992 13.334Z" fill="#7F7E88"/>
</g>
</svg>
